<?xml version="1.0" encoding="utf-8"?>
<!-- Generator: Adobe Illustrator 16.0.0, SVG Export Plug-In . SVG Version: 6.00 Build 0)  -->
<!DOCTYPE svg PUBLIC "-//W3C//DTD SVG 1.1//EN" "http://www.w3.org/Graphics/SVG/1.1/DTD/svg11.dtd">
<svg version="1.1" xmlns="http://www.w3.org/2000/svg" xmlns:xlink="http://www.w3.org/1999/xlink" x="0px" y="0px" width="100px"
	 height="100px" viewBox="0 0 100 100" enable-background="new 0 0 100 100" xml:space="preserve">
<g id="Layer_1" display="none">
	<path display="inline" fill="#252E38" d="M49.937,96.679c-26.021,0-47.191-21.169-47.191-47.191
		c0-26.021,21.17-47.191,47.191-47.191c26.021,0,47.192,21.17,47.192,47.191C97.129,75.51,75.957,96.679,49.937,96.679z
		 M49.937,9.203c-22.213,0-40.285,18.072-40.285,40.285s18.072,40.286,40.285,40.286c22.212,0,40.286-18.073,40.286-40.286
		S72.148,9.203,49.937,9.203z"/>
	<polygon display="inline" fill="#252E38" points="37.074,32.779 37.074,68.078 73.139,49.488 	"/>
</g>
<g id="Layer_2" display="none">
	<path display="inline" fill="#252E38" d="M49.937,96.679c-26.021,0-47.191-21.169-47.191-47.191
		c0-26.021,21.17-47.191,47.191-47.191c26.021,0,47.192,21.17,47.192,47.191C97.129,75.51,75.957,96.679,49.937,96.679z
		 M49.937,9.203c-22.213,0-40.285,18.072-40.285,40.285s18.072,40.286,40.285,40.286c22.212,0,40.286-18.073,40.286-40.286
		S72.148,9.203,49.937,9.203z"/>
	<rect x="39.758" y="32.779" display="inline" fill="#252E38" width="7.482" height="35.299"/>
	<rect x="53.57" y="32.781" display="inline" fill="#252E38" width="7.482" height="35.297"/>
</g>
<g id="Layer_3">
	<path fill="#252E38" d="M50.639,96.679c-26.021,0-47.191-21.169-47.191-47.191c0-26.021,21.17-47.191,47.191-47.191
		c26.021,0,47.191,21.17,47.191,47.191C97.83,75.51,76.66,96.679,50.639,96.679z M50.639,9.203
		c-22.212,0-40.285,18.072-40.285,40.285s18.072,40.286,40.285,40.286c22.213,0,40.285-18.073,40.285-40.286
		S72.852,9.203,50.639,9.203z"/>
	<rect x="35.73" y="36.04" fill="#252E38" width="28.775" height="27.048"/>
</g>
<g id="Layer_4" display="none">
	<path display="inline" fill="#252E38" d="M49.753,97.619c-26.021,0-47.191-21.17-47.191-47.191S23.732,3.237,49.753,3.237
		c26.022,0,47.191,21.169,47.191,47.191S75.775,97.619,49.753,97.619z M49.753,10.142c-22.213,0-40.285,18.072-40.285,40.286
		c0,22.213,18.072,40.285,40.285,40.285c22.212,0,40.285-18.072,40.285-40.285C90.038,28.214,71.966,10.142,49.753,10.142z"/>
	<g display="inline">
		
			<rect x="46.3" y="34.842" transform="matrix(0.7071 -0.7071 0.7071 0.7071 -21.8659 50.2744)" fill="#252E38" width="6.908" height="33.379"/>
		
			<rect x="46.3" y="34.842" transform="matrix(-0.7071 -0.7071 0.7071 -0.7071 48.4964 123.1513)" fill="#252E38" width="6.908" height="33.379"/>
	</g>
</g>
<g id="Layer_5" display="none">
	<g display="inline">
		<polyline fill="#252E38" points="30.215,83.396 15.805,68.988 14.205,85.798 		"/>
		<polygon fill="#252E38" points="18.209,66.85 59.835,25.225 62.234,27.625 22.21,66.85 24.343,68.988 64.421,30.027 
			74.512,40.167 33.418,81.795 		"/>
		<path fill="#252E38" d="M61.706,23.22l5.735-5.336c0,0,1.801-2.466,4.802,0l9.605,9.738c0,0,2.502,2.058,0,4.673L76.245,38.3
			L61.706,23.22z"/>
	</g>
</g>
</svg>
